<?xml version="1.0" encoding="UTF-8"?>
<svg version="1.1" viewBox="0 0 2048 573" width="628" height="176" xmlns="http://www.w3.org/2000/svg">
<path transform="translate(0)" d="m0 0h2048v573h-2048z" fill="#F8F9F9"/>
<path transform="translate(460,82)" d="m0 0h9v12l-4 18-6 16-9 15-9 10-5 5-11 9-16 9-19 6-24 3-173 1-12 3-16 8-10 9-12 19-9 15 4-2 10-8 15-8 17-5 18-2h115l13 2 11 4 12 9 9 13 4 10 1 5v16l-4 14-7 11-7 7-10 6-10 4-4 1-20 1h-131l-15 2-13 5-13 9-12 14-11 15h-2v-53l2-18 5-17 10-19 7-9 1-5v-66l2-17 5-17 9-17 8-10 5-6 14-11 17-9 17-5 8-1z" fill="#B2273E"/>
<path transform="translate(1704,124)" d="m0 0h33l10 11 8 10 26 32 14 17 11 14 11 13 9 11 13 16 11 14 1-137 1-1h39v210l-1 1h-32l-5-5-11-13-11-14-12-14-8-10-39-48-14-17-11-14-2-2-1 132-1 5h-39l-1-24v-186z" fill="#1D1B1B"/>
<path transform="translate(878,124)" d="m0 0h40l7 15 17 37 16 36 13 28 27 60 13 29 1 6h-42l-5-10-16-37h-103l-19 44-2 3h-41l1-6 57-126 26-58 9-20z" fill="#1D1B1B"/>
<path transform="translate(615,124)" d="m0 0h153l1 1v33l-31 1h-82l-1 52h101v34h-101v56h118v34h-159v-210z" fill="#1E1B1B"/>
<path transform="translate(1101,121)" d="m0 0h19l17 2 16 4 16 6 11 6 1 4-12 29-4-1-18-8-13-4-10-2-18-1-16 2-10 4-6 4-5 6-2 4v12l5 8 7 5 19 7 39 10 19 7 11 6 9 7 8 11 4 10 2 18-2 14-5 12-7 10-7 7-13 8-16 6-14 3-10 1h-26l-20-3-24-7-16-8-9-6 1-7 11-25 3-1 15 9 14 6 14 4 9 2 10 1h16l15-3 12-6 5-6 2-5v-10l-3-6-8-7-14-6-38-10-17-5-14-6-13-9-8-9-6-13-2-12v-12l3-14 6-12 9-10 10-8 15-7 21-5z" fill="#1D1B1B"/>
<path transform="translate(1417,124)" d="m0 0h147l7 1v33l-113 1-1 61h101v35l-100 1-1 79h-40z" fill="#1C1B1B"/>
<path transform="translate(1193,124)" d="m0 0h44l15 25 17 28 27 45v2h2l2-5 51-84 7-11h40l-2 7-13 21-15 25-34 56-9 15-8 13-1 73-1 1h-39l-1-71-3-7-18-30-14-23-12-20-14-23-17-28-4-6z" fill="#1D1B1B"/>
<path transform="translate(190,348)" d="m0 0h45l12 3 10 5 10 9 7 10 4 9 2 9v12l-4 13-7 12-9 9-12 7-10 3-12 1h-32l-12-2-16-8-8-7-7-10-5-13-1-5v-13l4-14 6-10 6-7 10-7 9-4z" fill="#BCBEC0"/>
<path transform="translate(1609,124)" d="m0 0h39l1 1v210h-40z" fill="#1C1B1B"/>
<path transform="translate(897,169)" d="m0 0h2l16 37 20 46v2l-7 1h-65l-2-1 1-5 33-77z" fill="#F6F7F7"/>
<path transform="translate(1719,391)" d="m0 0h13l7 3 5 4 5 10v18l-5 10-8 6-3 1h-15l-6-3-7-8-3-8v-12l3-10 7-8z" fill="#201B1C"/>
<path transform="translate(1208,391)" d="m0 0h12l7 3 5 4 5 10v18l-5 10-8 6-3 1h-15l-8-5-5-6-3-8v-12l3-10 7-8z" fill="#211B1C"/>
<path transform="translate(1364,373)" d="m0 0h51l-1 9h-40v20h38v9h-38l1 22 41 1v8l-48 1-4-1z" fill="#1F1B1B"/>
<path transform="translate(828,391)" d="m0 0h17l7 3 4 5 2 7v32l-1 4-6 1-5-4-8 4-5 1h-7l-7-4-4-5-1-2v-9l4-7 7-4 11-2h12l-2-8-4-3-6-1-7 2-5 6h-8l-1-4 4-7 6-4z" fill="#221B1C"/>
<path transform="translate(1529,391)" d="m0 0h12l7 3 6 5 4 9 1 11-1 1h-36l3 9 5 5h11l6-5 1-2h10l-1 5-5 7-8 4-10 1-9-2-8-6-5-9-1-5v-10l4-11 5-6 5-3z" fill="#221B1C"/>
<path transform="translate(1045,391)" d="m0 0h12l7 3 5 4 4 7 2 9v5l-1 1h-37l4 9 5 5 7 1 7-3 4-5h10l-2 7-4 5-8 4h-16l-8-4-6-7-3-8v-13l3-9 7-8z" fill="#221B1C"/>
<path transform="translate(1866,391)" d="m0 0h13l8 4 6 7 3 8 1 9-3 1h-35l4 10 5 4h10l6-4 2-3h9l-1 6-6 7-6 3-8 1-11-2-6-4-5-6-3-8v-14l4-10 8-7z" fill="#201B1C"/>
<path transform="translate(625,373)" d="m0 0h48l-1 9-36 1-1 19h33v9l-32 1-1 30-9 1-1-1z" fill="#1F1B1B"/>
<path transform="translate(1633,392)" d="m0 0h10l4 9 8 24v2h2l3-10 8-24 1-1h10l-2 9-17 45-6 11-6 5-9 1-2-1v-9l8-1 5-7-1-8-16-43z" fill="#211B1C"/>
<path transform="translate(1798,391)" d="m0 0h11l6 3 4 6 1 4v38h-9l-1-1-1-37-3-3-7-1-6 3-4 5-1 33-1 1h-8l-1-1v-46l1-3h8l1 4z" fill="#261B1D"/>
<path transform="translate(763,391)" d="m0 0h11l6 4 3 4 2 7v32l-1 4h-9l-1-34-3-7-7-1-8 4-2 3-1 29-1 6h-9v-50h9l1 4z" fill="#201B1C"/>
<path transform="translate(910,391)" d="m0 0h11l6 4 3 4 2 10v20l-1 12-1 1h-8l-2-38-4-4-9 1-6 5-1 10-1 26h-9v-50h9l1 4z" fill="#231B1C"/>
<path transform="translate(976,391)" d="m0 0h13l8 4 4 5 2 7-9 1-2-1-2-5-5-2h-7l-6 5-3 10 1 9 4 8 3 2h9l5-3 2-4h10l-1 5-4 6-8 5-10 1-10-3-7-6-4-9-1-9 2-12 6-9 6-4z" fill="#211B1C"/>
<path transform="translate(1485,391)" d="m0 0 2 2-8 23-9 22-2 4h-8l-3-5-14-36-2-9h10l6 16 6 18 2-2 11-31 1-1z" fill="#201B1B"/>
<path transform="translate(1166,371)" d="m0 0 4 1v8l-1 1-9 1-1 9 9 1v6l-2 2h-7v37l-1 5h-9l-1-41-6-2v-7l6-1 2-12 2-4 6-3z" fill="#241B1C"/>
<path transform="translate(1722,399)" d="m0 0h8l7 6 2 5v14l-4 8-4 3-6 1-7-3-4-5-2-5v-11l3-8z" fill="#F5F6F6"/>
<path transform="translate(1210,399)" d="m0 0h8l7 6 2 5v14l-4 8-4 3-6 1-7-3-4-5-2-5v-11l3-8z" fill="#F5F6F6"/>
<path transform="translate(1286,391)" d="m0 0h7v9l-10 2-5 4-1 2-1 34-9 1-1-1v-47l1-3h8l1 3 5-2z" fill="#291C1E"/>
<path transform="translate(1605,391)" d="m0 0h8v9l-12 3-3 1-1 3-1 33-1 2h-9v-50h9v4z" fill="#1E1B1B"/>
<path transform="translate(702,392)" d="m0 0h10v50h-10z" fill="#1C1B1B"/>
<path transform="translate(840,418)" d="m0 0h7l1 1v9l-5 5-5 2h-9l-4-2-1-2v-6l6-5z" fill="#F3F4F4"/>
<path transform="translate(1531,399)" d="m0 0h9l5 4 3 5v4h-26l1-6 5-5z" fill="#EEEFF0"/>
<path transform="translate(1868,399)" d="m0 0h9l7 6 2 7h-26l-1-2 3-6z" fill="#EFF1F1"/>
<path transform="translate(1047,399)" d="m0 0h8l5 3 3 4 1 6h-26l1-6 4-5z" fill="#EFF0F1"/>
<path transform="translate(703,373)" d="m0 0h9v10h-10z" fill="#251B1D"/>
</svg>
